<?xml version="1.0" encoding="utf-8"?>
<!-- Generator: Adobe Illustrator 24.3.0, SVG Export Plug-In . SVG Version: 6.00 Build 0)  -->
<svg version="1.1" id="图层_1" xmlns="http://www.w3.org/2000/svg" xmlns:xlink="http://www.w3.org/1999/xlink" x="0px" y="0px"
	 width="247.22px" height="427.63px" viewBox="0 0 247.22 427.63" style="enable-background:new 0 0 247.22 427.63;"
	 xml:space="preserve">
<path d="M158.97,286.29c-0.16,1.45-0.45,2.9-0.45,4.35c-0.06,21.42-0.11,42.83-0.12,64.25c-0.02,22.58,0,45.16-0.02,67.74
	c0,0.99,0.07,2.11-0.34,2.94c-0.41,0.84-1.4,1.39-2.13,2.07c-0.56-0.8-1.53-1.56-1.62-2.41c-0.48-4.72-0.76-9.46-1.1-14.19
	c-0.96-13.37-1.88-26.75-2.88-40.12c-0.55-7.39-1.17-14.78-1.85-22.16c-0.54-5.88-3.94-9.52-9.79-9.65
	c-13.4-0.29-26.8-0.26-40.21-0.27c-3.81,0-7.65,0.1-11.44,0.49c-6.91,0.71-10.94,4.71-11.46,11.67c-0.81,10.8-1.25,21.62-1.99,32.42
	c-0.9,13.04-1.94,26.08-2.94,39.11c-0.04,0.57-0.07,1.31-0.42,1.66c-0.71,0.7-1.65,1.64-2.45,1.6c-0.6-0.03-1.55-1.44-1.59-2.27
	c-0.16-3.32-0.02-6.66,0.01-9.99c0.12-14.66,0.31-29.33,0.33-43.99c0.03-20.08-0.07-40.17-0.15-60.25c-0.01-1.8-0.2-3.6-0.3-5.39
	c-0.23-0.01-0.47-0.02-0.7-0.02c-0.63,6.69-1.25,13.37-1.9,20.06c-0.53,5.43-2.06,10.45-7.32,13.11c-2.16,1.09-4.74,1.86-7.13,1.89
	c-15.25,0.22-30.5,0.2-45.76,0.25c-0.42,0-0.95,0.11-1.22-0.1c-0.6-0.45-1.06-1.08-1.58-1.63c0.58-0.45,1.13-1.21,1.76-1.29
	c1.72-0.23,3.48-0.21,5.22-0.21c12,0.01,24,0.1,36,0.03c2.98-0.02,6-0.29,8.94-0.83c3.66-0.67,6.63-4.16,7.02-7.85
	c1.97-18.88,4.05-37.75,5.82-56.65c0.67-7.12,0.56-14.32,0.89-21.47c0.07-1.44-0.5-3.69,1.86-3.63c2.2,0.05,1.95,2.27,1.93,3.73
	c-0.1,10.5-0.42,20.99-0.46,31.49c-0.08,22-0.04,44-0.02,66.01c0.01,9,0.06,17.99,0.12,26.99c0.01,1.13,0.15,2.25,0.82,3.45
	c0.14-0.75,0.35-1.49,0.4-2.24c0.48-7.48,0.8-14.97,1.43-22.43c0.35-4.12,0.74-8.33,3.69-11.69c3.41-3.88,7.84-5.05,12.8-5.02
	c12.58,0.07,25.17,0.06,37.76,0.09c4.49,0.01,9-0.2,13.47,0.12c6.19,0.46,10.84,4.95,11.7,11.12c0.98,6.98,1.72,13.98,2.59,20.97
	c0.09,0.72,0.31,1.42,1.06,2.15c0.08-0.81,0.24-1.63,0.24-2.44c-0.06-28.58-0.11-57.17-0.24-85.75
	c-0.05-11.91-0.31-23.82-0.44-35.72c-0.02-1.71,0.12-3.58,2.42-3.66c2.2-0.08,2.65,1.54,2.76,3.39c1.21,19.29,2.42,38.57,3.69,57.86
	c0.52,7.89,1.05,15.79,1.83,23.66c0.38,3.85,3.43,6.91,7.27,7.28c5.32,0.52,10.7,0.66,16.05,0.65c10.75-0.01,34.1-0.26,44.85-0.29
	c5.29-0.08,5.94,1,6.71,1.53c-0.75,0.45,0,1.66-5.36,1.45c-15.17,0.15-44.25,0.12-59.41,0.09c-7.7-0.01-12.58-4.06-13.21-11.45
	c-0.66-7.79-1.17-15.58-1.71-23.38c-0.4-5.72-0.76-11.44-1.14-17.15C159.33,286.31,159.15,286.3,158.97,286.29z"/>
<path d="M158.68,220.31c0.13-0.77,0.32-1.53,0.37-2.3c1.06-16.71,2.12-33.41,3.15-50.12c0.81-13.13,1.48-26.28,2.4-39.4
	c0.52-7.45,4.03-13.19,11.07-16.15c2.62-1.1,5.58-1.86,8.41-1.92c11.5-0.23,23-0.16,34.5-0.12c1.2,0,22.64-0.69,28.14,0.9
	c0.7,0.2,0.65,1.2-0.05,1.38c-5.44,1.38-26.81,0.89-27.98,0.89c-11.58,0.06-23.17-0.02-34.75,0.09
	c-8.72,0.08-15.77,6.83-16.29,15.49c-1.05,17.21-2.02,34.42-3.09,51.63c-0.81,12.97-1.7,25.93-2.61,38.89
	c-0.09,1.23-0.46,2.45-0.82,3.63c-0.47,1.53-1.41,3.06-3.13,2.49c-1.18-0.4-2.62-1.75-2.87-2.91c-0.73-3.4-1.13-6.91-1.29-10.39
	c-0.83-17.56-1.53-35.12-2.3-52.67c-0.43-9.82-0.71-19.65-1.44-29.45c-0.81-10.9-6.94-16.19-17.35-16.54
	c-12.56-0.43-25.17-0.19-37.72,0.46c-11.47,0.59-17.99-6.02-19.06-15.74c-1.11-10.09-1.32-20.27-1.96-30.41
	c-1.1-17.37-2.19-34.74-3.37-52.11c-0.09-1.3-0.27-2.6-0.5-3.89c-0.15-0.82-1.34-0.78-1.42,0.05c-0.13,1.28-0.24,2.56-0.33,3.84
	c-1.05,16.29-2.05,32.58-3.1,48.86c-0.67,10.38-1.25,20.77-2.16,31.13c-0.87,9.94-8.3,17.35-18.27,17.91
	c-8.13,0.46-16.31,0.11-24.46,0.17c-5.33,0.04-10.66,0.16-16,0.22c-0.92,0.01-1.91,0.16-2.72-0.15c-0.55-0.21-1-0.68-1.46-1.15
	c-0.29-0.3-0.27-0.77,0.05-1.04c0.44-0.38,0.88-0.75,1.4-0.97c0.57-0.24,1.31-0.07,1.98-0.07c13.08-0.02,26.18-0.37,39.25,0.06
	c8.23,0.27,16.66-7.38,17.09-15.06c0.44-7.73,1.12-15.45,1.64-23.17c0.82-12.3,1.55-24.6,2.37-36.9c0.67-10.14,1.41-20.27,2.12-30.4
	c0.02-0.25,0.02-0.5,0.04-0.75c0.26-2.65,1.92-4.85,3.72-4.59c2.44,0.35,2.72,2.5,2.89,4.37c0.57,6.39,1.06,12.78,1.47,19.18
	c1.48,22.77,2.89,45.55,4.4,68.31c0.17,2.57,0.35,5.2,0.9,7.7c1.45,6.54,7.38,11.11,14.08,11.11c12.33,0,24.67-0.09,37-0.1
	c4.86,0,9.64,0.43,13.9,3.21c6.05,3.95,8.59,9.69,8.84,16.7c0.6,16.32,1.2,32.63,1.86,48.95c0.45,11.07,0.94,22.14,1.52,33.2
	c0.13,2.58,0.69,5.14,1.06,7.7C158.08,220.34,158.38,220.33,158.68,220.31z"/>
<g>
</g>
<g>
</g>
<g>
</g>
<g>
</g>
<g>
</g>
<g>
</g>
</svg>
