<?xml version="1.0" encoding="utf-8"?>
<!-- Generator: Adobe Illustrator 24.3.0, SVG Export Plug-In . SVG Version: 6.00 Build 0)  -->
<svg version="1.1" id="图层_1" xmlns="http://www.w3.org/2000/svg" xmlns:xlink="http://www.w3.org/1999/xlink" x="0px" y="0px"
	 width="223.54px" height="426.82px" viewBox="0 0 223.54 426.82" style="enable-background:new 0 0 223.54 426.82;"
	 xml:space="preserve">
<path d="M157.98,398.4c0.28-5.49,2.29-41.35,2.67-46.84c0.39-5.69,2.3-10.75,7.83-13.26c2.66-1.21,5.75-1.99,8.66-2.05
	c14.41-0.26,28.83-0.21,43.25-0.27c0.75,0,1.57-0.1,2.21,0.18c0.46,0.2,0.9,0.94,0.94,1.47c0.03,0.37-0.59,1.01-1.02,1.13
	c-0.78,0.21-1.65,0.14-2.48,0.14c-13.17,0.03-26.33,0.01-39.5,0.14c-2.54,0.03-5.17,0.35-7.6,1.07c-4.87,1.44-8.07,4.62-8.53,9.92
	c-1.08,12.44-2.1,24.89-3.12,37.34c-0.81,9.88-1.58,19.75-2.34,29.64c-0.16,2.07,0.04,4.19-0.29,6.23
	c-0.17,1.11-1.09,2.11-1.67,3.16c-0.58-1.05-1.64-2.09-1.65-3.14c-0.09-5.91,0.15-11.82,0.12-17.73
	c-0.08-15.25-0.21-30.49-0.4-45.74c-0.2-16.24-0.79-51.22-1.05-67.46"/>
<path d="M153.07,310.42c-0.32,6.65-1.1,13.27-1.82,19.89c-0.44,4-3.62,10.63-8.02,11.13c-3.3,0.37-6.21,0.48-9.53,0.49
	c-15.17,0.06-33.05-0.6-48.21-0.78c-3.24-0.04-6.67-0.83-9.74-1.91c-3.22-1.13-4.45-5.72-4.91-9.11
	c-1.04-7.62-1.09-15.22-1.93-22.87c-0.23-2.11-0.22-4.52-0.42-6.64c-0.31,0.01-1.18-23.65-1.48-23.65c0,4.56-0.31,33.01-0.3,37.57
	c0.05,36,0.09,71.99,0.14,107.99c0,0.25,0.03,0.51-0.01,0.75c-0.22,1.35,0.64,3.51-1.61,3.52c-2.15,0-1.63-2.21-1.73-3.54
	c-1.44-19.1-2.77-38.2-4.19-57.29c-0.33-4.48-0.8-8.96-1.34-13.43c-1.15-9.49-5.07-13.05-14.59-13.09
	c-13.42-0.06-26.83,0.02-40.25,0.03c-0.58,0-1.24,0.17-1.73-0.04c-0.54-0.23-0.92-0.8-1.38-1.23c0.44-0.43,0.81-1.05,1.33-1.25
	c0.58-0.23,1.31-0.11,1.98-0.11c13.67-0.01,27.33-0.06,41,0.03c2.55,0.02,5.19,0.31,7.63,1.01c6.12,1.76,8.03,6.86,8.86,12.41
	c1.15,7.72,1.67,15.52,2.73,23.25c0.03-5.93-0.01-11.87,0.01-17.8c0.09-22.41,0.2-44.82,0.28-67.23
	c0.04-11.58,0.02-23.16,0.03-34.74c0-1-0.02-2,0.07-3c0.13-1.42,0.65-2.93,2.31-2.55c0.84,0.19,1.87,1.61,1.98,2.56
	c0.46,4.3,0.63,8.63,0.88,12.96c0.99,16.79,1.92,33.59,2.98,50.38c0.3,4.81,0.97,9.6,1.45,14.39c0.45,4.47,3.94,9.04,7.93,9.29
	c8.39,0.51,19.76,0.25,28.16,0.35c8.75,0.1,17.44,0.12,26.19,0c1.83-0.02,1.79,0.03,3.6-0.21c6.15-0.81,8.5-5.36,9.22-11.48
	c0.76-6.52,1.05-13.11,1.49-19.67c1.02-15.21,2.01-30.42,2.99-45.63c0.25-3.82,0.32-7.65,0.68-11.45c0.09-0.97,1-1.86,1.53-2.78
	c0.65,1.03,1.73,2.02,1.84,3.11c0.2,1.96-0.32,3.97-0.3,5.96c0.16,26.74,2.4,101.69,0.35,128.23"/>
<path d="M156.44,6.02c-0.34,0.92-0.28,1.84-0.38,2.78c-1.09,9.85-2.12,19.71-3.16,29.57c-1.22,11.59-2.49,23.18-3.61,34.78
	c-0.74,7.63-1.38,15.27-1.86,22.91c-0.55,8.68-4.89,14.49-12.9,17.54c-1.89,0.72-4.08,0.88-6.13,0.9c-11.24,0.1-22.5-0.21-33.73,0.2
	c-9.79,0.36-17.02,3.66-19.26,14.53c-0.48,2.33-0.19,4.81-0.29,7.22c-0.61,15.48-1.23,30.96-1.84,46.44
	c-0.43,10.9-0.77,21.81-1.31,32.7c-0.14,2.81-0.64,5.65-1.41,8.36c-0.31,1.11-1.72,2.56-2.73,2.63c-0.95,0.07-2.47-1.25-2.94-2.32
	c-0.79-1.78-1.18-3.83-1.33-5.8c-0.72-9.88-1.23-19.78-1.94-29.67c-1.06-14.79-2.18-29.57-3.34-44.35
	c-0.43-5.56-0.93-11.11-1.57-16.65c-0.69-5.99-4.16-9.96-9.83-11.66c-2.81-0.84-5.9-1.07-8.86-1.07
	c-11.66,0.01-25.02,0.12-36.67,0.16c-1.02-0.78-0.8-0.78-0.8-1.33c0-0.82,0.24-1.11,0.91-1.35c9.58-0.13,20.77-0.17,30.36-0.16
	c3.99,0,7.97,0.22,11.96,0.19c8.46-0.06,15.6,8,16.09,15.27c0.85,12.71,1.92,25.4,2.84,38.11c1.19,16.36,2.31,32.73,3.5,49.1
	c0.11,1.51,0.47,3.01,0.71,4.52c0.39,0.03,0.78,0.05,1.17,0.08c0.35-1.67,0.94-3.34,1.01-5.03c0.68-16.98,1.29-33.97,1.89-50.95
	c0.4-11.32,0.76-22.65,1.15-33.97c0.27-7.59,5.82-14.76,13.2-16.69c2.7-0.71,5.55-1.11,8.35-1.16c11.16-0.21,22.33-0.21,33.5-0.3
	c7.8-0.06,12.99-4.03,16.14-10.93c0.47-1.03,0.72-2.22,0.83-3.36c1.69-17.15,3.33-34.31,5.02-51.47
	c1.24-12.51,2.51-25.02,3.85-37.53c0.21-1.97,0.6-4.01,1.39-5.8c0.49-1.11,0.88-2.45,1.9-2.47c0.94-0.02,2.9,2.02,3.23,3.11
	c0.8,2.68,1.18,5.2,1.27,7.99c0.67,20.23,1.91,40.19,2.56,60.43c0.26,8.24,1.1,16.47,1.16,24.71c0.07,9.23,8.93,15.26,16.08,15.28
	c11.5,0.04,23-0.06,34.5-0.09c1.25,0,2.51-0.04,3.73,0.16c0.5,0.08,1.33,0.88,1.26,1.15c-0.15,0.59-0.72,1.15-1.26,1.51
	c-0.36,0.24-0.97,0.15-1.47,0.15c-12.58,0.02-25.17-0.01-37.75,0.06c-10.08,0.05-18.66-8.66-18.89-19.43
	c-0.43-19.83-1.06-39.6-1.51-59.43c-0.21-8.99-1.02-17.7-1.48-26.68c-0.04-0.79-0.35-2-0.47-2.79
	C156.96,6.07,156.79,6.09,156.44,6.02z"/>
<g>
</g>
<g>
</g>
<g>
</g>
<g>
</g>
<g>
</g>
<g>
</g>
</svg>
